G75*
G70*
%OFA0B0*%
%FSLAX24Y24*%
%IPPOS*%
%LPD*%
%AMOC8*
5,1,8,0,0,1.08239X$1,22.5*
%
%ADD10R,0.0454X0.0493*%
%ADD11R,0.0493X0.0454*%
%ADD12R,0.0370X0.0410*%
%ADD13R,0.0926X0.1084*%
%ADD14R,0.0375X0.0375*%
%ADD15R,0.0532X0.0296*%
%ADD16R,0.0590X0.0590*%
%ADD17C,0.0590*%
%ADD18R,0.2060X0.1560*%
%ADD19C,0.0454*%
D10*
X009524Y001225D03*
X009524Y001895D03*
X015404Y005295D03*
X015404Y005965D03*
X015404Y006845D03*
X014374Y006845D03*
X013654Y006895D03*
X013654Y007565D03*
X014374Y007515D03*
X015404Y007515D03*
X013004Y008245D03*
X013004Y008915D03*
X012004Y008915D03*
X011404Y008915D03*
X011404Y008245D03*
X012004Y008245D03*
X013204Y006115D03*
X013204Y005445D03*
D11*
X013839Y005390D03*
X014509Y005390D03*
X013839Y004880D03*
X013169Y004880D03*
X013169Y004280D03*
X013839Y004280D03*
X009604Y003715D03*
X009604Y003045D03*
X012369Y006880D03*
X013039Y006880D03*
D12*
X010494Y006680D03*
X009734Y006680D03*
X008894Y006680D03*
X008134Y006680D03*
X008514Y007480D03*
X008234Y008180D03*
X008994Y008180D03*
X009734Y008180D03*
X010494Y008180D03*
X010114Y007480D03*
X010114Y008980D03*
X008614Y008980D03*
D13*
X008504Y001596D03*
X008504Y003564D03*
D14*
X009509Y002430D03*
X010099Y002430D03*
D15*
X010990Y002054D03*
X010990Y001680D03*
X010990Y001306D03*
X012018Y001306D03*
X012018Y002054D03*
D16*
X009086Y000631D03*
X017130Y001588D03*
X016173Y009631D03*
D17*
X015386Y009631D03*
X014598Y009631D03*
X013811Y009631D03*
X013023Y009631D03*
X012236Y009631D03*
X011449Y009631D03*
X010661Y009631D03*
X009874Y009631D03*
X009086Y009631D03*
X017130Y008674D03*
X017130Y007887D03*
X017130Y007100D03*
X017130Y006312D03*
X017130Y005525D03*
X017130Y004737D03*
X017130Y003950D03*
X017130Y003163D03*
X017130Y002375D03*
X016173Y000631D03*
X015386Y000631D03*
X014598Y000631D03*
X013811Y000631D03*
X013023Y000631D03*
X012236Y000631D03*
X011449Y000631D03*
X010661Y000631D03*
X009874Y000631D03*
D18*
X009795Y005181D03*
D19*
X008130Y009631D03*
X017130Y009631D03*
X017130Y000631D03*
M02*
