G75*
G70*
%OFA0B0*%
%FSLAX24Y24*%
%IPPOS*%
%LPD*%
%AMOC8*
5,1,8,0,0,1.08239X$1,22.5*
%
%ADD10R,0.0394X0.0433*%
%ADD11R,0.0433X0.0394*%
%ADD12R,0.0310X0.0350*%
%ADD13R,0.0866X0.1024*%
%ADD14R,0.0315X0.0315*%
%ADD15R,0.0472X0.0236*%
%ADD16R,0.0530X0.0530*%
%ADD17C,0.0530*%
%ADD18R,0.2000X0.1500*%
%ADD19C,0.0394*%
%ADD20C,0.0120*%
%ADD21C,0.0240*%
%ADD22C,0.0160*%
%ADD23C,0.0100*%
%ADD24C,0.0080*%
%ADD25C,0.0140*%
%ADD26C,0.0200*%
D10*
X009524Y001225D03*
X009524Y001895D03*
X015404Y005295D03*
X015404Y005965D03*
X015404Y006845D03*
X014374Y006845D03*
X013654Y006895D03*
X013654Y007565D03*
X014374Y007515D03*
X015404Y007515D03*
X013004Y008245D03*
X013004Y008915D03*
X012004Y008915D03*
X011404Y008915D03*
X011404Y008245D03*
X012004Y008245D03*
X013204Y006115D03*
X013204Y005445D03*
D11*
X013839Y005390D03*
X014509Y005390D03*
X013839Y004880D03*
X013169Y004880D03*
X013169Y004280D03*
X013839Y004280D03*
X009604Y003715D03*
X009604Y003045D03*
X012369Y006880D03*
X013039Y006880D03*
D12*
X010494Y006680D03*
X009734Y006680D03*
X008894Y006680D03*
X008134Y006680D03*
X008514Y007480D03*
X008234Y008180D03*
X008994Y008180D03*
X009734Y008180D03*
X010494Y008180D03*
X010114Y007480D03*
X010114Y008980D03*
X008614Y008980D03*
D13*
X008504Y001596D03*
X008504Y003564D03*
D14*
X009509Y002430D03*
X010099Y002430D03*
D15*
X010990Y002054D03*
X010990Y001680D03*
X010990Y001306D03*
X012018Y001306D03*
X012018Y002054D03*
D16*
X009086Y000631D03*
X017130Y001588D03*
X016173Y009631D03*
D17*
X015386Y009631D03*
X014598Y009631D03*
X013811Y009631D03*
X013023Y009631D03*
X012236Y009631D03*
X011449Y009631D03*
X010661Y009631D03*
X009874Y009631D03*
X009086Y009631D03*
X017130Y008674D03*
X017130Y007887D03*
X017130Y007100D03*
X017130Y006312D03*
X017130Y005525D03*
X017130Y004737D03*
X017130Y003950D03*
X017130Y003163D03*
X017130Y002375D03*
X016173Y000631D03*
X015386Y000631D03*
X014598Y000631D03*
X013811Y000631D03*
X013023Y000631D03*
X012236Y000631D03*
X011449Y000631D03*
X010661Y000631D03*
X009874Y000631D03*
D18*
X009795Y005181D03*
D19*
X008130Y009631D03*
X017130Y009631D03*
X017130Y000631D03*
D20*
X016173Y000631D02*
X015730Y001074D01*
X015730Y004591D01*
X015110Y004591D01*
X014870Y004791D01*
X014870Y006391D01*
X015080Y006261D02*
X015080Y005011D01*
X015130Y004931D01*
X015730Y004931D01*
X016330Y004750D02*
X016330Y005231D01*
X015930Y005631D01*
X015830Y005631D01*
X015800Y005951D02*
X015786Y005965D01*
X015404Y005965D01*
X015080Y006261D02*
X015180Y006371D01*
X015870Y006371D01*
X016230Y006731D01*
X016230Y008231D01*
X015546Y008915D01*
X013004Y008915D01*
X012004Y008915D01*
X011404Y008915D01*
X012004Y008245D02*
X012030Y008245D01*
X012030Y007831D01*
X013004Y008245D02*
X013415Y008245D01*
X013600Y008251D01*
X014374Y007515D02*
X013755Y006895D01*
X013654Y006895D01*
X013639Y006880D01*
X013039Y006880D01*
X012369Y006880D02*
X012369Y006071D01*
X012230Y005931D01*
X012830Y005431D02*
X013190Y005431D01*
X013204Y005445D01*
X013804Y005445D01*
X013839Y005390D01*
X014509Y005390D02*
X014499Y005772D01*
X014500Y005771D01*
X015404Y005295D02*
X015764Y005295D01*
X015790Y005301D01*
X016330Y004750D02*
X017130Y003950D01*
X015287Y003989D02*
X015287Y000631D01*
X015386Y000631D01*
X014598Y000631D02*
X014580Y000650D01*
X014580Y001581D01*
X014638Y001640D01*
X014638Y002523D01*
X013730Y003431D01*
X013630Y003431D01*
X013839Y004280D02*
X014288Y004280D01*
X014290Y004281D01*
X013169Y004280D02*
X013169Y004880D01*
X012630Y004931D02*
X012630Y005231D01*
X012830Y005431D01*
X011230Y005031D02*
X011230Y002631D01*
X011630Y002231D01*
X011630Y001231D01*
X011430Y001031D01*
X011061Y001031D01*
X010661Y000631D01*
X010990Y001306D02*
X011015Y001331D01*
X011430Y001331D01*
X011430Y002031D01*
X011407Y002054D01*
X010990Y002054D01*
X010907Y002054D01*
X010990Y001680D02*
X010281Y001680D01*
X010130Y001831D01*
X010130Y002400D01*
X010099Y002430D01*
X011930Y002431D02*
X011930Y002332D01*
X012018Y002332D01*
X012018Y002054D01*
X012018Y002054D01*
X012018Y002332D01*
X012276Y002332D01*
X012316Y002321D01*
X012353Y002300D01*
X012383Y002270D01*
X012404Y002234D01*
X012414Y002193D01*
X012414Y002054D01*
X012019Y002054D01*
X012019Y002054D01*
X012414Y002054D01*
X012414Y001915D01*
X012404Y001874D01*
X012383Y001838D01*
X012353Y001808D01*
X012316Y001787D01*
X012276Y001776D01*
X012018Y001776D01*
X012018Y002053D01*
X012018Y002053D01*
X012018Y001776D01*
X011930Y001776D01*
X011930Y001631D01*
X012550Y001631D01*
X012550Y002431D01*
X011930Y002431D01*
X011930Y002383D02*
X012550Y002383D01*
X012550Y002265D02*
X012386Y002265D01*
X012414Y002146D02*
X012550Y002146D01*
X012550Y002028D02*
X012414Y002028D01*
X012413Y001909D02*
X012550Y001909D01*
X012550Y001791D02*
X012323Y001791D01*
X012550Y001672D02*
X011930Y001672D01*
X012018Y001791D02*
X012018Y001791D01*
X012018Y001909D02*
X012018Y001909D01*
X012018Y002028D02*
X012018Y002028D01*
X012018Y002146D02*
X012018Y002146D01*
X012018Y002265D02*
X012018Y002265D01*
X012630Y004331D02*
X013118Y004331D01*
X013169Y004280D01*
X014374Y006845D02*
X014744Y006845D01*
X014830Y006931D01*
X015404Y006845D02*
X015815Y006845D01*
X015830Y006831D01*
D21*
X015830Y006831D03*
X014830Y006931D03*
X014870Y006391D03*
X015800Y005951D03*
X015830Y005631D03*
X015790Y005301D03*
X015730Y004931D03*
X015730Y004591D03*
X015287Y003989D03*
X014290Y004281D03*
X014290Y004881D03*
X014500Y005771D03*
X012630Y004931D03*
X012330Y005131D03*
X011230Y005031D03*
X011230Y005531D03*
X012230Y005931D03*
X010930Y006731D03*
X011870Y007171D03*
X012030Y007831D03*
X010542Y007618D03*
X009324Y006680D03*
X009030Y006131D03*
X008100Y007451D03*
X008180Y007751D03*
X009254Y008580D03*
X008610Y009371D03*
X013600Y008251D03*
X012630Y004331D03*
X012930Y003631D03*
X013330Y003631D03*
X013630Y003431D03*
X014400Y003411D03*
X014380Y002371D03*
X014010Y002021D03*
X014000Y001691D03*
X013930Y001331D03*
X014310Y001291D03*
X014960Y001271D03*
X014960Y001801D03*
X014950Y002071D03*
X015980Y002201D03*
X015980Y001801D03*
X015980Y001401D03*
X013530Y001291D03*
X013170Y001351D03*
X013130Y001731D03*
X012480Y002051D03*
X012330Y001731D03*
X012030Y001731D03*
X013130Y002131D03*
X013570Y002371D03*
X012330Y002431D03*
X012030Y002431D03*
X011530Y003331D03*
X010430Y003331D03*
X010430Y003831D03*
X010130Y003831D03*
X010130Y004131D03*
X010430Y004131D03*
X009830Y004131D03*
X009530Y004131D03*
X010100Y002881D03*
X008830Y002631D03*
D22*
X008504Y002956D01*
X008504Y003564D01*
X009604Y003715D02*
X009646Y003715D01*
X010030Y003331D01*
X010430Y003331D01*
X010630Y003331D01*
X010950Y003651D01*
X010950Y005251D01*
X011230Y005531D01*
X012430Y005531D01*
X013013Y006115D01*
X013204Y006115D01*
X011830Y006531D02*
X010630Y005331D01*
X010579Y005319D01*
X010391Y005131D01*
X011030Y006131D02*
X009030Y006131D01*
X009324Y006680D02*
X009734Y006680D01*
X011030Y006131D02*
X011404Y006506D01*
X011404Y008245D01*
X011390Y008231D01*
X011130Y008231D01*
X011030Y008331D01*
X011030Y008931D01*
X010661Y009300D01*
X010661Y009631D01*
X010104Y008580D02*
X009254Y008580D01*
X008614Y008980D02*
X008610Y008984D01*
X008610Y009371D01*
X010104Y008580D02*
X010494Y008190D01*
X010494Y008180D01*
X011830Y007131D02*
X011870Y007171D01*
X012263Y007565D01*
X013654Y007565D01*
X013654Y007756D01*
X013830Y007931D01*
X015330Y007931D01*
X015430Y007831D01*
X015430Y007540D01*
X015404Y007515D01*
X011830Y007131D02*
X011830Y006531D01*
X013839Y004880D02*
X013840Y004881D01*
X014290Y004881D01*
X010430Y003331D02*
X010430Y002531D01*
X010907Y002054D01*
X010099Y002430D02*
X010099Y002881D01*
X010100Y002881D01*
X009604Y003045D02*
X009509Y003045D01*
X009509Y002430D01*
X009509Y002475D01*
X009054Y002406D02*
X009054Y002330D01*
X009554Y001830D01*
X008988Y001596D02*
X009439Y001145D01*
X009524Y001225D01*
X009874Y000876D01*
X009874Y000631D01*
X008988Y001596D02*
X008504Y001596D01*
X009054Y002406D02*
X008830Y002631D01*
X008134Y006680D02*
X008134Y006710D01*
X008104Y006680D02*
X008104Y007631D01*
X008104Y007680D01*
X008234Y007810D01*
X008234Y008180D01*
D23*
X008180Y007751D02*
X008180Y007706D01*
X008104Y007631D01*
X009795Y005181D02*
X010341Y005181D01*
X010391Y005131D01*
X012330Y005131D02*
X012330Y004131D01*
X011530Y003331D01*
X012720Y003421D02*
X012720Y000931D01*
X013023Y000637D01*
X013023Y000631D01*
X013130Y001031D02*
X013411Y001031D01*
X013811Y000631D01*
X013130Y001031D02*
X012890Y001281D01*
X012890Y003191D01*
X013330Y003631D01*
X012930Y003631D02*
X012720Y003421D01*
X008855Y003715D02*
X008504Y003564D01*
D24*
X009254Y006330D02*
X009954Y006330D01*
X010104Y006480D01*
X010104Y007480D01*
X010114Y007480D01*
X010114Y007790D01*
X010504Y008180D01*
X010494Y008180D01*
X010804Y007880D02*
X010804Y008580D01*
X010404Y008980D01*
X010114Y008980D01*
X009154Y008980D01*
X009004Y008830D01*
X009004Y008180D01*
X008514Y007690D01*
X008514Y007480D01*
X008994Y008180D02*
X009004Y008180D01*
X009704Y008230D02*
X009734Y008200D01*
X009734Y008180D01*
X009734Y006680D01*
X009254Y006330D02*
X008904Y006680D01*
X008894Y006680D01*
X008134Y006680D02*
X008104Y006680D01*
X010494Y006680D02*
X010494Y007570D01*
X010542Y007618D01*
X010804Y007880D01*
D25*
X009604Y003715D02*
X008855Y003715D01*
X010990Y001306D02*
X011016Y001280D01*
D26*
X009569Y001815D02*
X009524Y001895D01*
X009554Y001830D02*
X009569Y001815D01*
M02*
