G75*
G70*
%OFA0B0*%
%FSLAX24Y24*%
%IPPOS*%
%LPD*%
%AMOC8*
5,1,8,0,0,1.08239X$1,22.5*
%
%ADD10R,0.0454X0.0493*%
%ADD11R,0.0493X0.0454*%
%ADD12R,0.0966X0.0966*%
%ADD13R,0.0560X0.1060*%
%ADD14R,0.0454X0.0769*%
%ADD15R,0.0590X0.0590*%
%ADD16C,0.0590*%
%ADD17R,0.0611X0.0178*%
%ADD18R,0.0178X0.0611*%
%ADD19C,0.0454*%
%ADD20R,0.0760X0.0310*%
%ADD21R,0.0710X0.0710*%
%ADD22R,0.0760X0.0420*%
D10*
X009854Y001555D03*
X009854Y002225D03*
X011104Y003935D03*
X011104Y004605D03*
X010121Y004891D03*
X010121Y005560D03*
X015434Y002145D03*
X015434Y001475D03*
D11*
X011539Y002880D03*
X010869Y002880D03*
X009939Y003280D03*
X009269Y003280D03*
X010644Y001656D03*
X011313Y001656D03*
D12*
X010151Y006733D03*
X008458Y006733D03*
X008458Y008426D03*
X010151Y008426D03*
D13*
X008204Y001580D03*
X008204Y002980D03*
D14*
X013512Y001830D03*
X014496Y001830D03*
D15*
X017130Y001588D03*
X009086Y000631D03*
X016173Y009631D03*
D16*
X015386Y009631D03*
X014598Y009631D03*
X013811Y009631D03*
X013023Y009631D03*
X012236Y009631D03*
X011449Y009631D03*
X010661Y009631D03*
X009874Y009631D03*
X009086Y009631D03*
X017130Y008674D03*
X017130Y007887D03*
X017130Y007100D03*
X017130Y006312D03*
X017130Y005525D03*
X017130Y004737D03*
X017130Y003950D03*
X017130Y003163D03*
X017130Y002375D03*
X016173Y000631D03*
X015386Y000631D03*
X014598Y000631D03*
X013811Y000631D03*
X013023Y000631D03*
X012236Y000631D03*
X011449Y000631D03*
X010661Y000631D03*
X009874Y000631D03*
D17*
X011724Y003733D03*
X011724Y003930D03*
X011724Y004127D03*
X011724Y004324D03*
X011724Y004521D03*
X011724Y004718D03*
X011724Y004914D03*
X011724Y005111D03*
X011724Y005308D03*
X011724Y005505D03*
X011724Y005702D03*
X011724Y005899D03*
X011724Y006096D03*
X011724Y006292D03*
X011724Y006489D03*
X011724Y006686D03*
X016291Y006686D03*
X016291Y006489D03*
X016291Y006292D03*
X016291Y006096D03*
X016291Y005899D03*
X016291Y005702D03*
X016291Y005505D03*
X016291Y005308D03*
X016291Y005111D03*
X016291Y004914D03*
X016291Y004718D03*
X016291Y004521D03*
X016291Y004324D03*
X016291Y004127D03*
X016291Y003930D03*
X016291Y003733D03*
D18*
X015484Y002926D03*
X015287Y002926D03*
X015090Y002926D03*
X014893Y002926D03*
X014697Y002926D03*
X014500Y002926D03*
X014303Y002926D03*
X014106Y002926D03*
X013909Y002926D03*
X013712Y002926D03*
X013515Y002926D03*
X013319Y002926D03*
X013122Y002926D03*
X012925Y002926D03*
X012728Y002926D03*
X012531Y002926D03*
X012531Y007493D03*
X012728Y007493D03*
X012925Y007493D03*
X013122Y007493D03*
X013319Y007493D03*
X013515Y007493D03*
X013712Y007493D03*
X013909Y007493D03*
X014106Y007493D03*
X014303Y007493D03*
X014500Y007493D03*
X014697Y007493D03*
X014893Y007493D03*
X015090Y007493D03*
X015287Y007493D03*
X015484Y007493D03*
D19*
X017130Y009631D03*
X008130Y009631D03*
X017130Y000631D03*
D20*
X008102Y005853D03*
D21*
X009047Y005181D03*
D22*
G36*
X008870Y004259D02*
X009558Y003938D01*
X009380Y003559D01*
X008692Y003880D01*
X008870Y004259D01*
G37*
M02*
