%
M48
M72
T01C0.0080
T02C0.0350
%
T01
X8830Y2631
X10100Y2881
X10430Y3331
X10430Y3831
X10130Y3831
X10130Y4131
X10430Y4131
X9830Y4131
X9530Y4131
X11230Y5031
X11230Y5531
X12230Y5931
X10930Y6731
X11870Y7171
X12030Y7831
X10542Y7618
X9324Y6680
X9030Y6131
X8100Y7451
X8180Y7751
X9254Y8580
X8610Y9371
X13600Y8251
X14830Y6931
X14870Y6391
X15800Y5951
X15830Y5631
X15790Y5301
X15730Y4931
X15730Y4591
X15287Y3989
X14290Y4281
X14290Y4881
X14500Y5771
X12630Y4931
X12330Y5131
X12630Y4331
X12930Y3631
X13330Y3631
X13630Y3431
X14400Y3411
X14380Y2371
X14010Y2021
X14000Y1691
X13930Y1331
X14310Y1291
X14960Y1271
X14960Y1801
X14950Y2071
X15980Y2201
X15980Y1801
X15980Y1401
X13530Y1291
X13170Y1351
X13130Y1731
X12480Y2051
X12330Y1731
X12030Y1731
X13130Y2131
X13570Y2371
X12330Y2431
X12030Y2431
X11530Y3331
X15830Y6831
T02
X17130Y7100
X17130Y7887
X17130Y8674
X16173Y9631
X15386Y9631
X14598Y9631
X13811Y9631
X13023Y9631
X12236Y9631
X11449Y9631
X10661Y9631
X9874Y9631
X9086Y9631
X17130Y6312
X17130Y5525
X17130Y4737
X17130Y3950
X17130Y3163
X17130Y2375
X17130Y1588
X16173Y631
X15386Y631
X14598Y631
X13811Y631
X13023Y631
X12236Y631
X11449Y631
X10661Y631
X9874Y631
X9086Y631
M30
