G75*
G70*
%OFA0B0*%
%FSLAX24Y24*%
%IPPOS*%
%LPD*%
%AMOC8*
5,1,8,0,0,1.08239X$1,22.5*
%
%ADD10R,0.0394X0.0433*%
%ADD11R,0.0433X0.0394*%
%ADD12R,0.0310X0.0350*%
%ADD13R,0.0866X0.1024*%
%ADD14R,0.0382X0.0394*%
%ADD15R,0.0398X0.0394*%
%ADD16R,0.0472X0.0236*%
%ADD17R,0.2000X0.1500*%
D10*
X009524Y001225D03*
X009524Y001895D03*
X015404Y005295D03*
X015404Y005965D03*
X015404Y006845D03*
X014374Y006845D03*
X013654Y006895D03*
X013654Y007565D03*
X014374Y007515D03*
X015404Y007515D03*
X013004Y008245D03*
X013004Y008915D03*
X012004Y008915D03*
X011404Y008915D03*
X011404Y008245D03*
X012004Y008245D03*
X013204Y006115D03*
X013204Y005445D03*
D11*
X013839Y005390D03*
X014509Y005390D03*
X013839Y004880D03*
X013169Y004880D03*
X013169Y004280D03*
X013839Y004280D03*
X009604Y003715D03*
X009604Y003045D03*
X012369Y006880D03*
X013039Y006880D03*
D12*
X010494Y006680D03*
X009734Y006680D03*
X008894Y006680D03*
X008134Y006680D03*
X008514Y007480D03*
X008234Y008180D03*
X008994Y008180D03*
X009734Y008180D03*
X010494Y008180D03*
X010114Y007480D03*
X010114Y008980D03*
X008614Y008980D03*
D13*
X008504Y001596D03*
X008504Y003564D03*
D14*
X010105Y002430D03*
D15*
X009507Y002430D03*
D16*
X010990Y002054D03*
X010990Y001680D03*
X010990Y001306D03*
X012018Y001306D03*
X012018Y002054D03*
D17*
X009795Y005181D03*
M02*
