G75*
G70*
%OFA0B0*%
%FSLAX24Y24*%
%IPPOS*%
%LPD*%
%AMOC8*
5,1,8,0,0,1.08239X$1,22.5*
%
%ADD10C,0.0080*%
%ADD11C,0.0220*%
%ADD12C,0.0050*%
%ADD13R,0.0300X0.0180*%
%ADD14R,0.0180X0.0300*%
D10*
X009604Y003092D02*
X009604Y003467D01*
X012004Y002980D02*
X012006Y003000D01*
X012012Y003018D01*
X012021Y003036D01*
X012033Y003051D01*
X012048Y003063D01*
X012066Y003072D01*
X012084Y003078D01*
X012104Y003080D01*
X012124Y003078D01*
X012142Y003072D01*
X012160Y003063D01*
X012175Y003051D01*
X012187Y003036D01*
X012196Y003018D01*
X012202Y003000D01*
X012204Y002980D01*
X012202Y002960D01*
X012196Y002942D01*
X012187Y002924D01*
X012175Y002909D01*
X012160Y002897D01*
X012142Y002888D01*
X012124Y002882D01*
X012104Y002880D01*
X012084Y002882D01*
X012066Y002888D01*
X012048Y002897D01*
X012033Y002909D01*
X012021Y002924D01*
X012012Y002942D01*
X012006Y002960D01*
X012004Y002980D01*
X010308Y005226D02*
X009933Y005226D01*
D11*
X011092Y004270D02*
X011116Y004270D01*
X009866Y001890D02*
X009842Y001890D01*
D12*
X007897Y000436D02*
X007839Y000494D01*
X007897Y000436D02*
X007956Y000436D01*
X008014Y000494D01*
X008014Y000786D01*
X007956Y000786D02*
X008072Y000786D01*
X008207Y000728D02*
X008266Y000786D01*
X008382Y000786D01*
X008441Y000728D01*
X008441Y000669D01*
X008207Y000436D01*
X008441Y000436D01*
X008614Y000159D02*
X008614Y001103D01*
X016645Y001103D01*
X016645Y000159D01*
X008614Y000159D01*
X009287Y001578D02*
X009229Y001637D01*
X009229Y001753D01*
X009287Y001812D01*
X009404Y001947D02*
X009404Y002180D01*
X009579Y002122D02*
X009229Y002122D01*
X009404Y001947D01*
X009521Y001812D02*
X009579Y001753D01*
X009579Y001637D01*
X009521Y001578D01*
X009287Y001578D01*
X008504Y001830D02*
X008504Y002980D01*
X007904Y002980D02*
X007904Y001830D01*
X007754Y002130D02*
X008704Y002130D01*
X009279Y002663D02*
X009337Y002605D01*
X009454Y002605D01*
X009513Y002663D01*
X009647Y002663D02*
X009647Y002780D01*
X009823Y002780D01*
X009881Y002722D01*
X009881Y002663D01*
X009823Y002605D01*
X009706Y002605D01*
X009647Y002663D01*
X009647Y002780D02*
X009764Y002897D01*
X009881Y002955D01*
X009513Y002897D02*
X009454Y002955D01*
X009337Y002955D01*
X009279Y002897D01*
X009279Y002663D01*
X010324Y003163D02*
X010383Y003105D01*
X010499Y003105D01*
X010558Y003163D01*
X010693Y003105D02*
X010926Y003105D01*
X010809Y003105D02*
X010809Y003455D01*
X010693Y003338D01*
X010558Y003397D02*
X010499Y003455D01*
X010383Y003455D01*
X010324Y003397D01*
X010324Y003163D01*
X011061Y003163D02*
X011119Y003105D01*
X011236Y003105D01*
X011294Y003163D01*
X011294Y003397D01*
X011061Y003163D01*
X011061Y003397D01*
X011119Y003455D01*
X011236Y003455D01*
X011294Y003397D01*
X012039Y003241D02*
X015976Y003241D01*
X015976Y007178D01*
X012039Y007178D01*
X012039Y003241D01*
X012164Y003491D02*
X012166Y003512D01*
X012172Y003531D01*
X012181Y003550D01*
X012193Y003566D01*
X012209Y003580D01*
X012226Y003591D01*
X012245Y003599D01*
X012266Y003603D01*
X012286Y003603D01*
X012307Y003599D01*
X012326Y003591D01*
X012343Y003580D01*
X012359Y003566D01*
X012371Y003550D01*
X012380Y003531D01*
X012386Y003512D01*
X012388Y003491D01*
X012386Y003470D01*
X012380Y003451D01*
X012371Y003432D01*
X012359Y003416D01*
X012343Y003402D01*
X012326Y003391D01*
X012307Y003383D01*
X012286Y003379D01*
X012266Y003379D01*
X012245Y003383D01*
X012226Y003391D01*
X012209Y003402D01*
X012193Y003416D01*
X012181Y003432D01*
X012172Y003451D01*
X012166Y003470D01*
X012164Y003491D01*
X010779Y004313D02*
X010721Y004255D01*
X010487Y004255D01*
X010429Y004313D01*
X010429Y004430D01*
X010487Y004488D01*
X010487Y004623D02*
X010429Y004682D01*
X010429Y004798D01*
X010487Y004857D01*
X010546Y004857D01*
X010604Y004798D01*
X010662Y004857D01*
X010721Y004857D01*
X010779Y004798D01*
X010779Y004682D01*
X010721Y004623D01*
X010721Y004488D02*
X010779Y004430D01*
X010779Y004313D01*
X010604Y004740D02*
X010604Y004798D01*
X010502Y005106D02*
X010735Y005106D01*
X010793Y005165D01*
X010793Y005281D01*
X010735Y005340D01*
X010735Y005475D02*
X010677Y005475D01*
X010618Y005533D01*
X010618Y005650D01*
X010677Y005708D01*
X010735Y005708D01*
X010793Y005650D01*
X010793Y005533D01*
X010735Y005475D01*
X010618Y005533D02*
X010560Y005475D01*
X010502Y005475D01*
X010443Y005533D01*
X010443Y005650D01*
X010502Y005708D01*
X010560Y005708D01*
X010618Y005650D01*
X010502Y005340D02*
X010443Y005281D01*
X010443Y005165D01*
X010502Y005106D01*
X009303Y004746D02*
X009303Y004396D01*
X009186Y004396D02*
X009420Y004396D01*
X009186Y004630D02*
X009303Y004746D01*
X009051Y004746D02*
X008935Y004746D01*
X008993Y004746D02*
X008993Y004454D01*
X008935Y004396D01*
X008876Y004396D01*
X008818Y004454D01*
X008730Y004107D02*
X008691Y004029D01*
X007630Y004609D01*
X007830Y004587D02*
X008730Y004107D01*
X008414Y004055D02*
X008297Y003938D01*
X008163Y003997D02*
X008163Y003763D01*
X008104Y003705D01*
X007929Y003705D01*
X007929Y004055D01*
X008104Y004055D01*
X008163Y003997D01*
X008414Y004055D02*
X008414Y003705D01*
X008297Y003705D02*
X008531Y003705D01*
X009500Y003674D02*
X009539Y003753D01*
X008614Y004984D02*
X008517Y004984D01*
X008517Y005378D02*
X008614Y005378D01*
X008418Y006202D02*
X007926Y006202D01*
X007926Y006694D01*
X009009Y006792D02*
X009009Y007285D01*
X008517Y007285D01*
X008123Y007285D02*
X008123Y007875D01*
X009009Y008761D02*
X009599Y008761D01*
X008614Y009159D02*
X008614Y010103D01*
X016645Y010103D01*
X016645Y009159D01*
X008614Y009159D01*
X010829Y008855D02*
X011063Y008855D01*
X010946Y008855D02*
X010946Y008505D01*
X011197Y008505D02*
X011431Y008505D01*
X011314Y008505D02*
X011314Y008855D01*
X011197Y008738D01*
X011331Y007784D02*
X011331Y007492D01*
X011390Y007434D01*
X011506Y007434D01*
X011565Y007492D01*
X011565Y007784D01*
X011700Y007667D02*
X011816Y007784D01*
X011816Y007434D01*
X011700Y007434D02*
X011933Y007434D01*
X010485Y007285D02*
X010485Y007875D01*
X009599Y006399D02*
X009009Y006399D01*
X015784Y008684D02*
X015842Y008626D01*
X015900Y008626D01*
X015959Y008684D01*
X015959Y008976D01*
X016017Y008976D02*
X015900Y008976D01*
X016152Y008801D02*
X016386Y008801D01*
X016327Y008626D02*
X016327Y008976D01*
X016152Y008801D01*
X016657Y009147D02*
X017602Y009147D01*
X017602Y001115D01*
X016657Y001115D01*
X016657Y009147D01*
X016516Y002842D02*
X016575Y002784D01*
X016575Y002667D01*
X016516Y002609D01*
X016400Y002725D02*
X016400Y002784D01*
X016458Y002842D01*
X016516Y002842D01*
X016400Y002784D02*
X016341Y002842D01*
X016283Y002842D01*
X016224Y002784D01*
X016224Y002667D01*
X016283Y002609D01*
X016224Y002474D02*
X016224Y002357D01*
X016224Y002415D02*
X016516Y002415D01*
X016575Y002357D01*
X016575Y002299D01*
X016516Y002240D01*
X016159Y001978D02*
X016101Y002037D01*
X015984Y002037D01*
X015926Y001978D01*
X015926Y001920D01*
X015984Y001803D01*
X015809Y001803D01*
X015809Y002037D01*
X016159Y001978D02*
X016159Y001862D01*
X016101Y001803D01*
X016159Y001668D02*
X016042Y001552D01*
X016042Y001610D02*
X016042Y001435D01*
X016159Y001435D02*
X015809Y001435D01*
X015809Y001610D01*
X015867Y001668D01*
X015984Y001668D01*
X016042Y001610D01*
X014201Y001436D02*
X013807Y001436D01*
X013031Y001205D02*
X012797Y001205D01*
X012914Y001205D02*
X012914Y001555D01*
X012797Y001438D01*
X012663Y001497D02*
X012663Y001555D01*
X012663Y001497D02*
X012546Y001380D01*
X012546Y001205D01*
X012546Y001380D02*
X012429Y001497D01*
X012429Y001555D01*
X011255Y002040D02*
X011255Y002098D01*
X011197Y002157D01*
X011022Y002157D01*
X011022Y002040D01*
X011080Y001981D01*
X011197Y001981D01*
X011255Y002040D01*
X011139Y002273D02*
X011022Y002157D01*
X010887Y002157D02*
X010887Y002273D01*
X010829Y002332D01*
X010653Y002332D01*
X010653Y001981D01*
X010653Y002098D02*
X010829Y002098D01*
X010887Y002157D01*
X010770Y002098D02*
X010887Y001981D01*
X011139Y002273D02*
X011255Y002332D01*
X013807Y002224D02*
X014201Y002224D01*
D13*
X015434Y001810D03*
D14*
X010978Y001656D03*
M02*
